<?xml version="1.0" standalone="no"?>
<!DOCTYPE svg PUBLIC "-//W3C//DTD SVG 20010904//EN"
 "http://www.w3.org/TR/2001/REC-SVG-20010904/DTD/svg10.dtd">
<svg version="1.0" xmlns="http://www.w3.org/2000/svg"
 width="567.000000pt" height="262.000000pt" viewBox="0 0 567.000000 262.000000"
 preserveAspectRatio="xMidYMid meet">

<g transform="translate(0.000000,262.000000) scale(0.100000,-0.100000)"
fill="#000000" stroke="none">
<path d="M1418 2063 c18 -2 45 -2 60 0 15 2 0 4 -33 4 -33 0 -45 -2 -27 -4z"/>
<path d="M1240 2036 c-285 -86 -486 -321 -522 -611 -6 -52 -9 -97 -6 -100 3
-3 19 -2 36 1 32 6 32 7 32 68 0 34 9 98 21 142 65 247 243 429 486 495 43 12
80 23 82 25 12 12 -64 0 -129 -20z"/>
<path d="M1430 1915 c0 -68 2 -75 20 -75 18 0 20 7 20 75 0 68 -2 75 -20 75
-18 0 -20 -7 -20 -75z"/>
<path d="M1126 1902 c-7 -12 65 -132 80 -132 20 0 19 4 -22 76 -34 61 -47 74
-58 56z"/>
<path d="M1716 1846 c-41 -72 -42 -76 -22 -76 8 0 28 25 45 55 36 64 40 76 25
82 -7 2 -28 -25 -48 -61z"/>
<path d="M1742 1773 c-17 -7 -42 -57 -42 -85 0 -16 -45 -67 -152 -175 -84 -84
-149 -155 -146 -158 4 -4 24 -9 46 -12 38 -5 39 -4 171 127 114 114 138 134
169 137 46 5 82 38 82 75 0 33 -7 35 -35 8 -27 -25 -65 -17 -65 15 0 12 9 34
21 49 l20 26 -28 -1 c-15 0 -34 -3 -41 -6z"/>
<path d="M900 1667 c0 -7 15 -21 33 -31 17 -10 47 -28 65 -38 31 -19 32 -19
32 -1 0 11 -21 30 -56 51 -61 35 -74 39 -74 19z"/>
<path d="M1918 1643 c-38 -23 -55 -39 -51 -49 4 -12 10 -11 37 4 17 11 46 28
64 38 32 18 44 45 20 43 -7 0 -39 -16 -70 -36z"/>
<path d="M3520 1315 l0 -185 25 0 25 0 0 185 0 185 -25 0 -25 0 0 -185z"/>
<path d="M2660 1475 c0 -12 13 -15 60 -15 l60 0 2 -162 c3 -160 3 -163 26
-166 l22 -3 0 165 0 166 60 0 c47 0 60 3 60 15 0 13 -23 15 -145 15 -122 0
-145 -2 -145 -15z"/>
<path d="M3232 1313 l3 -178 118 -3 c109 -2 118 -1 115 15 -3 15 -16 18 -96
21 l-92 3 0 159 0 160 -25 0 -25 0 2 -177z"/>
<path d="M4573 1473 c-3 -10 -14 -36 -23 -58 -10 -22 -26 -62 -35 -90 -9 -27
-20 -54 -24 -60 -5 -5 -14 -28 -21 -50 -7 -22 -19 -50 -26 -62 -14 -22 -13
-23 11 -23 19 0 28 7 35 28 27 73 25 72 121 72 l88 0 14 -47 c12 -40 18 -49
40 -51 22 -3 25 0 20 20 -3 13 -10 28 -14 34 -5 6 -16 31 -24 55 -8 24 -21 58
-29 74 -42 94 -54 123 -64 148 -14 32 -59 39 -69 10z m52 -62 c3 -16 15 -46
26 -67 30 -60 27 -64 -46 -64 -67 0 -82 11 -52 42 7 7 19 33 27 58 7 25 15 48
17 53 9 16 22 6 28 -22z"/>
<path d="M2158 1345 c-4 -55 -14 -124 -23 -153 -16 -53 -14 -75 5 -56 18 18
31 120 28 216 l-3 93 -7 -100z"/>
<path d="M3030 1411 c-8 -4 -28 -14 -45 -22 -17 -9 -31 -24 -33 -37 -2 -12 -8
-22 -13 -22 -16 0 -10 -109 8 -138 30 -49 54 -62 116 -62 31 0 57 4 57 10 0 6
7 10 15 10 8 0 15 7 15 15 0 8 6 15 13 16 6 0 3 4 -8 8 -14 6 -29 1 -51 -15
-36 -28 -43 -29 -80 -9 -30 15 -42 36 -43 73 -1 21 2 22 97 22 l98 0 -4 38
c-6 49 -46 102 -77 102 -13 0 -27 5 -30 10 -7 12 -14 12 -35 1z m56 -37 c17
-4 44 -52 44 -77 0 -4 -34 -7 -75 -7 -70 0 -75 1 -75 22 0 47 51 77 106 62z"/>
<path d="M3720 1410 c0 -5 -9 -10 -19 -10 -11 0 -33 -11 -48 -24 -26 -23 -28
-29 -28 -103 0 -76 1 -81 32 -111 28 -28 38 -32 86 -32 44 0 59 5 82 26 22 20
25 28 14 34 -8 6 -20 4 -30 -6 -8 -7 -21 -14 -27 -14 -7 0 -12 -4 -12 -10 0
-19 -47 -10 -74 15 -17 16 -26 34 -26 55 l0 30 94 0 93 0 -8 51 c-9 58 -32 89
-65 89 -13 0 -26 5 -29 10 -3 6 -13 10 -21 10 -8 0 -14 -4 -14 -10z m55 -36
c16 -6 45 -54 45 -74 0 -6 -29 -10 -75 -10 -75 0 -75 0 -75 27 0 50 51 77 105
57z"/>
<path d="M4270 1410 c0 -5 -9 -10 -19 -10 -11 0 -33 -11 -48 -24 -26 -23 -28
-29 -28 -103 0 -76 1 -81 32 -111 27 -27 39 -32 81 -32 41 0 55 5 81 29 17 16
31 39 31 50 0 12 6 30 12 41 10 16 10 24 0 40 -6 11 -12 30 -12 43 0 31 -35
67 -65 67 -13 0 -27 5 -30 10 -3 6 -13 10 -21 10 -8 0 -14 -4 -14 -10z m64
-41 c18 -9 26 -22 31 -56 11 -73 -1 -115 -40 -140 -43 -29 -46 -28 -79 2 -23
22 -26 31 -26 96 0 53 4 77 17 91 18 20 60 23 97 7z"/>
<path d="M4935 1410 c-3 -5 -14 -10 -24 -10 -10 0 -24 -7 -31 -15 -7 -8 -16
-15 -21 -15 -5 0 -9 7 -9 15 0 8 -7 15 -15 15 -13 0 -15 -28 -15 -190 l0 -190
26 0 26 0 -4 75 -3 74 20 -19 c31 -29 99 -27 129 3 44 44 41 216 -4 237 -8 4
-25 12 -37 18 -28 15 -30 15 -38 2z m46 -49 c21 -17 24 -28 24 -91 0 -68 -2
-73 -30 -96 -37 -29 -39 -29 -76 -3 -29 21 -30 22 -27 102 3 75 5 82 28 94 35
18 54 16 81 -6z"/>
<path d="M5220 1410 c0 -5 -8 -10 -19 -10 -10 0 -24 -7 -31 -15 -7 -8 -16 -15
-21 -15 -5 0 -9 7 -9 15 0 8 -7 15 -15 15 -13 0 -15 -28 -15 -190 0 -186 0
-190 21 -190 19 0 20 5 17 75 -3 77 3 90 24 55 19 -30 101 -28 132 3 29 29 40
106 25 176 -10 46 -15 53 -52 71 -46 23 -57 24 -57 10z m41 -40 c10 -6 19 -19
19 -30 0 -10 5 -22 10 -25 13 -8 13 -68 1 -80 -5 -6 -11 -20 -13 -33 -1 -13
-15 -31 -30 -40 -25 -15 -28 -14 -62 12 -35 26 -36 29 -36 96 0 62 2 70 26 89
29 23 55 26 85 11z"/>
<path d="M3911 1338 c12 -35 27 -76 34 -93 7 -16 19 -49 26 -72 11 -38 16 -43
40 -43 23 0 30 6 35 28 4 15 10 32 14 37 4 6 15 37 26 70 10 33 20 62 23 65 3
3 11 20 18 38 11 32 11 33 -14 30 -23 -3 -29 -11 -44 -68 -10 -36 -25 -77 -34
-92 -8 -14 -15 -36 -15 -47 0 -39 -16 -21 -29 32 -7 28 -19 66 -26 82 -7 17
-17 44 -22 60 -6 19 -17 31 -31 33 l-21 3 20 -63z"/>
<path d="M820 1354 c0 -14 8 -15 57 -9 96 12 106 24 21 24 -65 1 -78 -2 -78
-15z"/>
<path d="M1930 1355 c0 -13 12 -15 78 -13 43 2 77 7 77 13 0 6 -34 11 -77 13
-66 2 -78 0 -78 -13z"/>
<path d="M856 1318 c-43 -5 -86 -13 -95 -19 -12 -8 -6 -9 24 -5 247 36 487 33
715 -8 154 -28 256 -58 385 -113 188 -81 283 -112 460 -149 98 -20 245 -66
245 -76 0 -4 -21 -9 -47 -9 l-48 -1 50 -9 c28 -5 76 -13 107 -18 44 -8 64 -17
89 -42 34 -35 79 -122 79 -153 0 -11 3 -17 6 -13 11 11 -15 94 -40 131 -48 71
-130 122 -256 159 -47 14 -103 28 -125 32 -51 8 -257 65 -270 75 -5 4 -28 13
-50 20 -40 12 -132 49 -190 76 -107 49 -322 107 -458 124 -97 12 -469 11 -581
-2z"/>
<path d="M660 1280 c-34 -7 -34 -7 -5 -8 17 0 44 4 60 8 27 7 27 8 5 8 -14 -1
-41 -4 -60 -8z"/>
<path d="M1146 1248 c16 -18 31 -35 33 -38 2 -3 1 9 -2 27 -4 20 -2 33 6 37 7
2 -6 5 -27 5 l-40 1 30 -32z"/>
<path d="M555 1253 c-46 -25 -234 -71 -323 -78 l-80 -7 5 -52 c6 -56 -9 -104
-52 -166 -30 -44 -48 -145 -34 -194 6 -20 11 -36 12 -36 1 0 2 35 2 79 0 77 1
79 39 122 22 24 47 48 55 53 9 6 161 10 356 10 186 1 315 4 285 8 -30 3 -153
16 -272 29 l-217 22 -62 50 c-71 57 -69 61 36 72 70 7 194 43 250 74 17 9 39
19 50 22 l20 7 -20 1 c-11 0 -33 -7 -50 -16z"/>
<path d="M715 1242 l-110 -27 -3 -34 c-2 -21 3 -40 13 -51 18 -20 88 -35 121
-27 15 3 10 8 -19 21 -37 16 -68 59 -53 73 4 4 51 22 104 40 118 39 95 41 -53
5z"/>
<path d="M1595 1210 c128 -44 305 -137 305 -160 0 -3 -35 -3 -77 2 -125 12
-534 30 -541 24 -3 -3 15 -6 39 -6 24 0 100 -7 169 -15 192 -22 553 -56 557
-51 8 8 -99 78 -185 121 -99 49 -243 100 -312 110 -34 4 -24 -1 45 -25z"/>
<path d="M1358 973 c-41 -11 3 -43 57 -42 l40 1 -43 10 c-31 7 -42 13 -38 24
3 8 4 13 3 13 -1 -1 -10 -3 -19 -6z"/>
<path d="M2626 865 c9 -14 22 -25 29 -25 7 0 28 -3 46 -7 32 -6 33 -5 19 12
-16 20 -70 45 -95 45 -14 0 -14 -3 1 -25z"/>
<path d="M476 870 c-38 -12 -83 -55 -108 -105 -11 -22 -25 -43 -30 -46 -5 -3
-51 -12 -103 -19 l-95 -13 36 -24 c33 -23 116 -43 177 -43 22 0 27 4 27 25 0
35 46 144 73 173 12 14 36 33 52 43 32 20 20 23 -29 9z"/>
<path d="M2350 868 c81 -23 144 -103 160 -204 6 -33 10 -60 10 -61 0 -6 210 0
210 6 0 11 -61 21 -131 21 l-56 0 -11 67 c-8 46 -20 77 -40 102 -34 43 -104
81 -147 80 l-30 -1 35 -10z"/>
<path d="M555 838 c-40 -14 -94 -65 -111 -105 -20 -46 -17 -117 6 -162 36 -72
107 -108 193 -98 61 8 109 39 137 90 l22 38 141 -6 c78 -2 309 -7 512 -9 l370
-4 -355 23 c-195 13 -422 26 -503 30 -97 5 -150 11 -152 19 -21 77 -34 106
-65 137 -51 53 -127 71 -195 47z m115 -64 c29 -12 46 -27 60 -55 26 -49 25
-83 -1 -126 -29 -47 -71 -66 -128 -60 -62 7 -111 60 -111 121 0 54 39 112 83
125 46 13 52 13 97 -5z"/>
<path d="M2206 835 c-52 -18 -92 -59 -111 -113 -21 -63 -19 -90 10 -148 30
-60 76 -93 142 -101 88 -10 161 28 194 101 49 108 0 226 -110 264 -44 15 -76
15 -125 -3z m137 -67 c31 -16 57 -70 57 -117 0 -37 -6 -49 -39 -82 -33 -33
-45 -39 -83 -39 -66 0 -121 45 -134 109 -10 50 26 115 75 135 37 16 88 13 124
-6z"/>
<path d="M910 727 c0 -12 34 -16 198 -21 108 -3 258 -8 332 -10 194 -7 76 9
-175 23 -110 6 -235 14 -277 17 -64 4 -78 3 -78 -9z"/>
<path d="M2671 718 c-24 -8 -28 -28 -7 -28 8 0 20 -2 28 -5 7 -2 24 4 37 14
l24 18 -30 5 c-17 2 -40 1 -52 -4z"/>
</g>
</svg>
